<svg xmlns="http://www.w3.org/2000/svg" viewBox="0 0 48 48"><defs><style>.cls-3{fill:#374f68}.cls-4{fill:#425b72}.cls-5{fill:#edebf2}.cls-6{fill:#6fabe6}.cls-7{fill:#82bcf4}</style></defs><g id="Computer_analytic_Growth" data-name="Computer analytic Growth"><path d="M47 6v26H1V6a2 2 0 0 1 2-2h42a2 2 0 0 1 2 2z" style="fill:#9fdbf3"/><path d="M47 6v24H7a3 3 0 0 1-3-3V4h41a2 2 0 0 1 2 2z" style="fill:#b2e5fb"/><path class="cls-3" d="M47 32v3a2 2 0 0 1-2 2H3a2 2 0 0 1-2-2v-3z"/><path class="cls-4" d="M47 32v3H6a2 2 0 0 1-2-2v-1z"/><path class="cls-3" d="M30 44H18l1.33-7h9.34L30 44z"/><path class="cls-4" d="M29.62 42h-3.53A4.22 4.22 0 0 1 22 37h6.72z"/><path class="cls-3" d="M32 45H16a1 1 0 0 1 0-2h16a1 1 0 0 1 0 2z"/><path class="cls-5" d="M16 10H6a1 1 0 0 1 0-2h10a1 1 0 0 1 0 2zM16 14H6a1 1 0 0 1 0-2h10a1 1 0 0 1 0 2zM12 18H6a1 1 0 0 1 0-2h6a1 1 0 0 1 0 2z"/><path class="cls-6" d="M20 21h4v6h-4z"/><path class="cls-7" d="M24 21v4a2 2 0 0 1-2-2v-2z"/><path class="cls-6" d="M28 19h4v8h-4z"/><path style="fill:#db5669" d="M42 14h-2v13h-4V14h-2l4-5 4 5z"/><path d="M42 14h-2v11a2 2 0 0 1-2-2v-9h-2l3-3.75z" style="fill:#f26674"/><path class="cls-7" d="M32 19v6a2 2 0 0 1-2-2v-4z"/><path class="cls-4" d="M42 28H18a1 1 0 0 1 0-2h24a1 1 0 0 1 0 2z"/></g></svg>